<?xml version="1.0" encoding="UTF-8" standalone="no"?>
<svg
   xmlns:dc="http://purl.org/dc/elements/1.1/"
   xmlns:cc="http://creativecommons.org/ns#"
   xmlns:rdf="http://www.w3.org/1999/02/22-rdf-syntax-ns#"
   xmlns:svg="http://www.w3.org/2000/svg"
   xmlns="http://www.w3.org/2000/svg"
   xmlns:sodipodi="http://sodipodi.sourceforge.net/DTD/sodipodi-0.dtd"
   xmlns:inkscape="http://www.inkscape.org/namespaces/inkscape"
   id="Layer_1"
   enable-background="new 0 0 511.449 511.449"
   height="512"
   viewBox="0 0 511.449 511.449"
   width="512"
   version="1.1"
   sodipodi:docname="app.svg"
   inkscape:version="0.92.5 (2060ec1f9f, 2020-04-08)">
  <metadata
     id="metadata3807">
    <rdf:RDF>
      <cc:Work
         rdf:about="">
        <dc:format>image/svg+xml</dc:format>
        <dc:type
           rdf:resource="http://purl.org/dc/dcmitype/StillImage" />
        <dc:title />
      </cc:Work>
    </rdf:RDF>
  </metadata>
  <defs
     id="defs3805" />
  <sodipodi:namedview
     pagecolor="#ffffff"
     bordercolor="#666666"
     borderopacity="1"
     objecttolerance="10"
     gridtolerance="10"
     guidetolerance="10"
     inkscape:pageopacity="0"
     inkscape:pageshadow="2"
     inkscape:window-width="1848"
     inkscape:window-height="1043"
     id="namedview3803"
     showgrid="false"
     inkscape:zoom="1.6894531"
     inkscape:cx="42.32139"
     inkscape:cy="253.63237"
     inkscape:window-x="72"
     inkscape:window-y="0"
     inkscape:window-maximized="1"
     inkscape:current-layer="Layer_1" />
  <g
     fill="#e0b7a2"
     id="g3800">
    <circle
       cx="255.724"
       cy="170.391"
       r="21.333"
       id="circle3782" />
    <circle
       cx="341.058"
       cy="170.391"
       r="21.333"
       id="circle3784" />
    <circle
       cx="170.391"
       cy="170.391"
       r="21.333"
       id="circle3786" />
    <circle
       cx="255.724"
       cy="255.724"
       r="21.333"
       id="circle3788" />
    <circle
       cx="341.058"
       cy="255.724"
       r="21.333"
       id="circle3790" />
    <circle
       cx="170.391"
       cy="255.724"
       r="21.333"
       id="circle3792" />
    <circle
       cx="255.724"
       cy="341.058"
       r="21.333"
       id="circle3794" />
    <circle
       cx="341.058"
       cy="341.058"
       r="21.333"
       id="circle3796" />
    <circle
       cx="170.391"
       cy="341.058"
       r="21.333"
       id="circle3798" />
  </g>
  <path
     style="stroke-width:0.5919075;fill:#666666"
     d="m 162.65618,190.17209 c -4.61678,-1.77029 -10.01208,-7.26125 -11.79875,-12.00793 -1.76989,-4.70212 -1.55909,-12.21142 0.45987,-16.38203 2.12448,-4.38859 5.6408,-7.92535 10.02581,-10.08408 3.5822,-1.76351 4.45112,-1.94545 9.29138,-1.94545 4.54232,0 5.82572,0.23204 8.59511,1.55399 4.82831,2.30476 7.96205,5.33607 10.18554,9.85263 1.79121,3.63846 1.94826,4.41317 1.9449,9.59365 -0.003,5.17967 -0.15614,5.92785 -1.8886,9.24858 -2.34453,4.49394 -6.87623,8.65455 -11.18054,10.265 -4.41749,1.6528 -11.18478,1.61195 -15.63472,-0.0944 z"
     id="path4614"
     inkscape:connector-curvature="0"
     transform="scale(0.99892383)" />
  <path
     style="fill:#666666;stroke-width:0.5919075"
     d="m 249.00935,190.63959 c -5.52386,-2.10417 -9.71743,-6.04407 -12.30488,-11.56056 -1.30102,-2.77381 -1.53961,-4.10804 -1.53961,-8.60967 0,-4.5364 0.2346,-5.82767 1.5805,-8.69896 2.01617,-4.30126 6.13603,-8.42112 10.43729,-10.4373 2.87312,-1.34675 4.16152,-1.5805 8.71141,-1.5805 4.83823,0 5.70999,0.18234 9.28397,1.9418 4.86936,2.39718 8.80108,6.59185 10.55109,11.25677 1.78311,4.75313 1.48651,12.08119 -0.67561,16.69276 -1.9457,4.14995 -5.84396,8.04928 -9.99733,10.00005 -2.62776,1.23422 -4.28267,1.55611 -8.58265,1.66935 -3.41312,0.0899 -6.095,-0.15219 -7.46418,-0.67374 z"
     id="path4616"
     inkscape:connector-curvature="0"
     transform="scale(0.99892383)" />
  <path
     style="fill:#666666;stroke-width:0.5919075"
     d="m 335.19723,190.88869 c -3.4555,-1.07547 -8.2743,-4.47568 -10.4836,-7.39736 -3.05987,-4.04652 -4.30173,-7.91478 -4.27557,-13.31792 0.0286,-5.90883 2.10238,-10.61229 6.52183,-14.79203 4.69316,-4.43859 7.62816,-5.57632 14.45236,-5.60236 4.93893,-0.0189 6.02015,0.17344 8.88604,1.5803 9.13971,4.48666 14.01349,14.64729 11.58078,24.14306 -1.68665,6.58366 -5.15653,10.92515 -11.22865,14.04921 -2.48639,1.27924 -3.96895,1.58507 -8.3503,1.72258 -2.92995,0.092 -6.12625,-0.0815 -7.10289,-0.38548 z"
     id="path4618"
     inkscape:connector-curvature="0"
     transform="scale(0.99892383)" />
  <path
     style="fill:#666666;stroke-width:0.5919075"
     d="m 336.31209,276.47302 c -16.15414,-3.92035 -21.49148,-24.65533 -9.25082,-35.93838 4.26294,-3.92944 8.4013,-5.52173 14.35098,-5.52173 4.1939,0 5.59026,0.25994 8.39038,1.5619 4.69259,2.1819 8.41411,5.82094 10.69868,10.46158 1.71942,3.49264 1.9223,4.44299 1.91085,8.95116 -0.0106,4.17799 -0.27833,5.61462 -1.55978,8.37019 -2.94207,6.32654 -8.09892,10.61132 -14.61759,12.14564 -4.01613,0.94529 -5.92656,0.93945 -9.9227,-0.0304 z"
     id="path4620"
     inkscape:connector-curvature="0"
     transform="scale(0.99892383)" />
  <path
     style="fill:#666666;stroke-width:0.5919075"
     d="m 334.46791,361.42111 c -12.96193,-4.81204 -18.13435,-20.02315 -10.73153,-31.55944 2.15705,-3.36148 4.34372,-5.29292 8.43771,-7.45284 2.72714,-1.43879 3.63166,-1.59496 9.23816,-1.59496 5.60651,0 6.51103,0.15617 9.23817,1.59496 6.12321,3.23051 9.54766,7.52723 11.22865,14.08879 2.43539,9.50623 -2.49145,19.75893 -11.58078,24.09949 -4.43697,2.11885 -11.37038,2.47975 -15.83038,0.824 z"
     id="path4622"
     inkscape:connector-curvature="0"
     transform="scale(0.99892383)" />
  <path
     style="fill:#666666;stroke-width:0.5919075"
     d="m 249.25216,361.47664 c -5.91255,-2.11113 -10.09694,-5.96615 -12.76499,-11.76022 -1.05089,-2.28217 -1.31694,-3.93535 -1.31932,-8.19823 -0.003,-4.84143 0.17818,-5.70762 1.9388,-9.28396 2.39718,-4.86937 6.59186,-8.80108 11.25678,-10.5511 4.75312,-1.7831 12.08119,-1.48651 16.69275,0.67561 4.15168,1.94651 8.05082,5.84565 9.99733,9.99733 2.16212,4.61157 2.45872,11.93963 0.67561,16.69276 -2.85105,7.5999 -10.38309,12.92022 -18.84994,13.31483 -3.36134,0.15666 -5.35263,-0.0749 -7.62702,-0.88702 z"
     id="path4624"
     inkscape:connector-curvature="0"
     transform="scale(0.99892383)" />
  <path
     style="fill:#666666;stroke-width:0.5919075"
     d="m 251.29192,276.70228 c -6.04074,-1.52218 -12.24504,-6.67095 -14.77615,-12.2623 -1.82747,-4.03699 -1.82326,-12.85184 0.008,-16.89879 4.16569,-9.20549 14.83221,-14.4568 24.39079,-12.00801 9.51034,2.43643 15.32401,9.40102 15.84942,18.98705 0.14274,2.60439 -0.0285,5.80069 -0.38058,7.10289 -1.65499,6.12146 -7.26105,12.20772 -13.10301,14.22538 -3.38601,1.16944 -9.11632,1.57753 -11.98854,0.85378 z"
     id="path4626"
     inkscape:connector-curvature="0"
     transform="scale(0.99892383)" />
  <path
     style="fill:#666666;stroke-width:0.5919075"
     d="m 165.04329,276.3978 c -6.10158,-1.70896 -10.40752,-5.26364 -13.51816,-11.15964 -1.43879,-2.72713 -1.59496,-3.63165 -1.59496,-9.23816 0,-5.60651 0.15617,-6.51103 1.59496,-9.23816 3.23051,-6.12322 7.52723,-9.54766 14.08879,-11.22866 9.49691,-2.43299 19.64035,2.40289 24.1035,11.49134 1.44965,2.95196 1.64628,4.02397 1.64628,8.97548 0,4.95151 -0.19663,6.02352 -1.64628,8.97548 -4.49919,9.16184 -15.14662,14.09082 -24.67413,11.42232 z"
     id="path4628"
     inkscape:connector-curvature="0"
     transform="scale(0.99892383)" />
  <path
     style="fill:#666666;stroke-width:0.5919075"
     d="m 164.35506,361.65208 c -6.2056,-1.98999 -12.09443,-7.76297 -13.84226,-13.56992 -1.29407,-4.29939 -1.12698,-10.28162 0.40141,-14.37209 1.76753,-4.73048 7.18168,-10.14463 11.91216,-11.91216 4.57459,-1.70928 10.99664,-1.73601 15.46453,-0.0644 4.30431,1.61045 8.83601,5.77106 11.18054,10.265 1.73246,3.32073 1.88524,4.06891 1.8886,9.24858 0.003,5.18048 -0.15369,5.95519 -1.9449,9.59365 -3.47095,7.0505 -9.87757,11.17592 -17.86863,11.50616 -2.79777,0.11562 -5.4689,-0.14247 -7.19145,-0.69486 z"
     id="path4630"
     inkscape:connector-curvature="0"
     transform="scale(0.99892383)" />
  <path
     style="fill:#666666;stroke-width:0.5919075"
     d="m 166.23941,190.80912 c -4.06145,-0.67348 -7.31144,-2.56696 -10.79114,-6.28704 -3.48929,-3.73034 -4.44264,-5.62178 -5.18927,-10.29551 -0.71834,-4.49659 -0.0563,-9.5112 1.74768,-13.23771 1.65987,-3.42883 6.39836,-7.73589 10.51948,-9.5617 3.03302,-1.34375 3.97098,-1.47454 9.00864,-1.25617 4.35255,0.18867 6.20483,0.54624 8.19757,1.58248 3.68218,1.91474 7.30261,5.45374 9.28349,9.07467 1.47735,2.70049 1.74492,3.91554 1.94896,8.85023 0.21275,5.14542 0.0865,6.04768 -1.25702,8.98228 -1.76065,3.84576 -5.59884,8.19827 -8.96439,10.16563 -2.02912,1.18613 -8.70528,2.79898 -10.68838,2.58213 -0.32555,-0.0356 -2.04258,-0.30528 -3.81562,-0.59929 z"
     id="path4632"
     inkscape:connector-curvature="0"
     transform="scale(0.99892383)" />
</svg>
